<?xml version="1.0" standalone="no"?>
<!DOCTYPE svg PUBLIC "-//W3C//DTD SVG 20010904//EN"
 "http://www.w3.org/TR/2001/REC-SVG-20010904/DTD/svg10.dtd">
<svg version="1.0" xmlns="http://www.w3.org/2000/svg"
 width="1279.000000pt" height="107.000000pt" viewBox="0 0 1279.000000 107.000000"
 preserveAspectRatio="xMidYMid meet">
<metadata>
Created by potrace 1.12, written by Peter Selinger 2001-2015
</metadata>
<g transform="translate(0.000000,107.000000) scale(0.100000,-0.100000)"
fill="#000000" stroke="none">
<path d="M5868 1024 c-81 -19 -142 -50 -189 -97 -102 -102 -115 -226 -32 -318
42 -47 89 -53 123 -17 31 33 25 62 -22 107 l-43 40 20 37 c31 58 86 89 159 89
39 0 74 -6 97 -18 90 -45 153 -148 153 -252 0 -75 -21 -116 -80 -158 -75 -53
-129 -70 -224 -70 -105 -1 -166 16 -368 100 -192 79 -257 101 -330 111 -121
16 -221 -14 -400 -120 l-105 -62 -31 18 c-159 94 -304 136 -465 136 -129 0
-183 -14 -322 -81 l-108 -52 -153 76 c-84 42 -220 111 -303 154 -326 171 -545
250 -765 277 -236 28 -328 14 -535 -84 -94 -44 -155 -79 -556 -322 -87 -53
-191 -110 -233 -127 -171 -71 -426 -77 -646 -14 -131 37 -290 120 -407 212
-57 44 -103 76 -103 72 0 -17 134 -133 215 -186 144 -95 280 -154 447 -192 53
-12 120 -16 243 -16 165 0 173 0 264 32 105 36 178 71 426 209 240 134 426
225 525 259 77 25 98 28 220 28 275 0 504 -80 1005 -348 66 -35 142 -75 169
-89 l48 -24 -108 -56 c-170 -86 -223 -103 -329 -102 -169 2 -337 63 -670 243
-318 171 -386 199 -506 208 -67 5 -83 3 -131 -19 -119 -55 -167 -125 -168
-244 0 -144 49 -227 170 -288 38 -19 94 -38 124 -41 141 -18 278 64 293 175 7
51 -1 82 -33 119 -31 37 -66 40 -88 9 -22 -31 -21 -35 16 -68 28 -26 30 -32
20 -55 -6 -14 -26 -34 -44 -46 -43 -26 -121 -22 -166 9 -38 28 -82 114 -82
162 0 73 73 140 151 140 68 0 173 -42 429 -171 239 -121 425 -196 530 -214 98
-16 226 -17 289 -1 67 17 214 88 326 156 l66 40 108 -39 c219 -81 420 -118
581 -107 135 8 232 37 425 126 183 85 269 109 360 104 61 -4 80 -11 315 -104
107 -43 236 -88 285 -100 112 -28 260 -31 354 -6 86 22 192 80 258 139 l54 50
42 -41 c127 -123 316 -184 509 -162 108 13 205 42 408 125 91 37 186 73 213
81 100 31 190 23 320 -28 68 -27 76 -33 65 -47 -11 -14 -11 -14 3 -3 14 10 36
4 133 -38 153 -66 240 -89 356 -97 154 -9 357 26 555 98 l85 31 57 -35 c92
-56 233 -124 292 -141 30 -9 89 -16 130 -16 187 1 359 57 693 225 287 145 332
163 413 171 72 6 118 -13 152 -65 30 -45 29 -95 -3 -159 -33 -66 -72 -95 -138
-99 -59 -5 -109 20 -128 62 -10 23 -8 29 20 55 37 33 38 37 16 68 -49 70 -146
-42 -121 -140 13 -50 67 -111 124 -139 37 -18 66 -23 128 -23 74 -1 88 2 157
37 129 63 178 144 178 291 0 88 -22 139 -80 188 -58 50 -105 71 -171 76 -116
9 -224 -31 -508 -185 -230 -125 -346 -181 -456 -217 -81 -27 -224 -56 -277
-56 -55 0 -152 31 -268 86 l-115 55 170 90 c623 328 805 394 1100 393 127 0
147 -2 220 -28 91 -31 271 -119 455 -223 369 -206 482 -255 632 -274 337 -41
696 80 966 326 34 31 62 61 62 66 0 4 -45 -27 -100 -70 -117 -91 -239 -158
-367 -201 -122 -40 -292 -64 -403 -56 -242 19 -278 34 -680 281 -522 321 -634
355 -985 300 -232 -37 -409 -107 -859 -344 -115 -60 -242 -124 -281 -141 l-72
-32 -124 61 c-153 75 -214 91 -345 91 -127 0 -257 -31 -373 -89 l-82 -41 -37
24 c-150 94 -262 137 -361 137 -102 0 -156 -16 -430 -130 -148 -62 -230 -83
-326 -83 -100 -1 -151 14 -229 69 -59 42 -80 83 -80 158 0 72 33 153 84 202
100 98 256 92 320 -12 20 -32 21 -75 2 -75 -17 0 -62 -53 -62 -74 0 -34 35
-66 74 -66 26 0 41 8 69 39 97 108 58 268 -88 364 -59 39 -184 68 -259 61
-143 -13 -307 -101 -379 -203 l-16 -25 -23 30 c-116 147 -330 228 -500 188z
m-1521 -540 c83 -17 181 -53 228 -84 l29 -19 -64 -29 c-141 -64 -289 -78 -469
-47 -91 16 -249 60 -264 74 -11 11 176 102 230 111 82 13 230 11 310 -6z
m4305 7 c84 -14 302 -123 268 -135 -182 -62 -412 -84 -548 -50 -80 19 -238 92
-226 104 19 17 141 63 204 75 78 16 224 18 302 6z"/>
</g>
</svg>
