<?xml version="1.0" standalone="no"?>
<!DOCTYPE svg PUBLIC "-//W3C//DTD SVG 20010904//EN"
 "http://www.w3.org/TR/2001/REC-SVG-20010904/DTD/svg10.dtd">
<svg version="1.0" xmlns="http://www.w3.org/2000/svg"
 width="1279.000000pt" height="107.000000pt" viewBox="0 0 1279.000000 107.000000"
 preserveAspectRatio="xMidYMid meet">
<metadata>
Created by potrace 1.12, written by Peter Selinger 2001-2015
</metadata>
<g transform="translate(0.000000,107.000000) scale(0.100000,-0.100000)"
fill="#000000" stroke="none">
<path d="M5900 1034 c-51 -9 -146 -48 -186 -74 -64 -45 -122 -143 -124 -210 0
-47 21 -102 57 -141 42 -47 89 -53 123 -17 31 34 25 64 -22 108 l-43 39 20 37
c31 58 86 89 159 89 39 0 74 -6 97 -18 90 -45 154 -149 153 -252 0 -75 -21
-116 -80 -158 -77 -54 -129 -70 -229 -70 -104 1 -178 21 -384 108 -225 95
-243 100 -366 100 -129 0 -169 -14 -343 -116 l-103 -62 -99 52 c-134 70 -257
101 -399 101 -129 0 -183 -14 -322 -81 l-108 -52 -88 42 c-48 23 -180 91 -293
151 -420 221 -624 293 -912 322 -246 24 -395 -31 -858 -317 -372 -229 -428
-255 -617 -276 -286 -32 -584 58 -830 250 -57 44 -103 76 -103 72 0 -5 28 -34
61 -66 163 -151 373 -260 600 -312 54 -12 121 -16 244 -16 164 0 173 1 262 31
108 37 192 78 437 215 245 136 414 219 516 254 77 25 97 28 220 27 286 -1 483
-70 1033 -362 l189 -100 -124 -60 c-179 -88 -208 -97 -313 -95 -175 2 -335 61
-695 255 -300 162 -392 198 -504 198 -71 0 -141 -28 -201 -81 -55 -48 -75 -99
-75 -190 0 -142 49 -223 173 -284 40 -19 95 -38 122 -41 140 -17 278 66 292
176 7 51 -1 82 -33 119 -31 37 -66 40 -88 9 -22 -31 -21 -35 16 -68 28 -26 30
-32 20 -55 -6 -14 -26 -34 -44 -46 -43 -26 -121 -22 -166 9 -38 28 -82 114
-82 162 0 73 73 140 151 140 68 0 173 -42 429 -171 342 -172 512 -228 701
-229 41 0 100 7 130 16 61 18 217 95 314 154 l66 40 108 -39 c219 -81 420
-118 581 -107 135 8 232 37 425 126 196 90 287 114 385 100 64 -10 84 -16 313
-109 95 -38 213 -79 262 -91 112 -28 261 -31 354 -6 86 22 192 80 257 139 l54
49 54 -49 c65 -59 171 -117 257 -139 93 -25 242 -22 354 6 50 12 167 53 262
91 229 93 249 99 313 109 72 10 155 -4 252 -42 68 -27 77 -33 66 -47 -11 -14
-11 -14 3 -3 14 10 36 4 133 -38 153 -66 240 -89 356 -97 154 -9 357 26 555
98 l85 31 57 -35 c91 -55 233 -123 292 -141 30 -9 89 -16 130 -16 189 1 359
57 701 229 256 129 361 171 429 171 78 0 151 -67 151 -140 0 -48 -44 -134 -82
-162 -45 -31 -123 -35 -166 -9 -18 12 -38 32 -44 46 -10 23 -8 29 20 55 37 33
38 37 16 68 -22 31 -57 28 -88 -9 -112 -133 51 -320 259 -295 27 3 82 22 122
41 124 61 173 144 173 289 0 86 -21 138 -75 185 -60 53 -130 81 -201 81 -112
0 -201 -35 -519 -206 -318 -171 -480 -233 -651 -249 -90 -9 -164 10 -314 81
l-114 55 229 121 c566 298 748 362 1035 363 122 0 143 -3 220 -28 102 -35 271
-118 516 -254 245 -137 329 -178 437 -215 89 -30 98 -31 262 -31 123 0 190 4
244 16 224 52 432 159 594 307 90 82 87 98 -5 24 -205 -166 -392 -247 -636
-275 -91 -10 -133 -10 -225 0 -189 21 -245 47 -617 276 -463 286 -612 341
-858 317 -145 -15 -244 -36 -382 -82 -154 -51 -258 -98 -560 -256 -140 -73
-287 -147 -326 -164 l-71 -32 -130 64 c-160 80 -215 92 -370 85 -140 -6 -206
-22 -331 -82 l-92 -44 -76 46 c-42 25 -108 60 -148 77 -65 29 -80 31 -181 31
-123 0 -142 -6 -366 -100 -206 -87 -280 -107 -384 -108 -100 0 -152 16 -229
70 -59 42 -80 83 -80 158 -1 103 63 207 153 252 23 12 58 18 97 18 73 0 128
-31 159 -89 l20 -37 -43 -39 c-47 -44 -53 -74 -22 -108 34 -36 81 -30 123 17
73 81 73 178 1 282 -85 124 -296 178 -464 120 -105 -37 -215 -112 -263 -181
l-17 -24 -17 24 c-48 69 -159 145 -259 179 -62 20 -169 33 -214 25z m-1552
-550 c77 -16 193 -60 234 -89 21 -14 20 -15 -43 -44 -138 -62 -293 -77 -473
-45 -87 15 -244 59 -259 73 -11 11 176 102 230 111 82 13 230 11 311 -6z
m4372 -10 c72 -29 211 -107 203 -114 -5 -4 -36 -15 -70 -24 -174 -47 -363 -59
-482 -30 -76 18 -234 91 -226 104 8 13 133 59 205 75 91 21 308 14 370 -11z"/>
</g>
</svg>
